<?xml version="1.0" encoding="UTF-8" standalone="no"?>
<svg
   xmlns:dc="http://purl.org/dc/elements/1.1/"
   xmlns:cc="http://creativecommons.org/ns#"
   xmlns:rdf="http://www.w3.org/1999/02/22-rdf-syntax-ns#"
   xmlns:svg="http://www.w3.org/2000/svg"
   xmlns="http://www.w3.org/2000/svg"
   xmlns:sodipodi="http://sodipodi.sourceforge.net/DTD/sodipodi-0.dtd"
   xmlns:inkscape="http://www.inkscape.org/namespaces/inkscape"
   id="Layer_1"
   enable-background="new 0 0 512 512"
   height="512"
   viewBox="0 0 512 512"
   width="512"
   version="1.1"
   sodipodi:docname="cocoa-bean.svg"
   inkscape:export-filename="C:\Users\Rishi-Desktop\Pictures\icon.png"
   inkscape:export-xdpi="96"
   inkscape:export-ydpi="96"
   inkscape:version="1.0.2-2 (e86c870879, 2021-01-15)">
  <metadata
     id="metadata31">
    <rdf:RDF>
      <cc:Work
         rdf:about="">
        <dc:format>image/svg+xml</dc:format>
        <dc:type
           rdf:resource="http://purl.org/dc/dcmitype/StillImage" />
      </cc:Work>
    </rdf:RDF>
  </metadata>
  <defs
     id="defs29" />
  <sodipodi:namedview
     pagecolor="#ffffff"
     bordercolor="#666666"
     borderopacity="1"
     objecttolerance="10"
     gridtolerance="10"
     guidetolerance="10"
     inkscape:pageopacity="0"
     inkscape:pageshadow="2"
     inkscape:window-width="1858"
     inkscape:window-height="1057"
     id="namedview27"
     showgrid="false"
     inkscape:zoom="0.4609375"
     inkscape:cx="-109.55933"
     inkscape:cy="256"
     inkscape:window-x="-8"
     inkscape:window-y="-8"
     inkscape:window-maximized="1"
     inkscape:current-layer="Layer_1"
     inkscape:document-rotation="0" />
  <g
     id="g24">
    <path
       d="m159.6 158.537h-16.067c-79.144 0-143.533-64.389-143.533-143.533 0-8.284 6.716-15 15-15h16.067c79.145 0 143.533 64.389 143.533 143.533 0 8.284-6.716 15-15 15z"
       fill="#32b464"
       id="path2" />
    <path
       d="m174.6 143.537c0-79.145-64.389-143.533-143.533-143.533h-16.067c-3.87 0-7.387 1.479-10.048 3.885l154.648 154.648c8.284 0 15-6.716 15-15z"
       fill="#28825a"
       id="path4" />
    <path
       d="m497 238.87h-16.066c-96.863 0-175.667-78.796-175.667-175.65 0-8.284 6.716-15.016 15-15.016h16.066c96.863 0 175.667 78.803 175.667 175.666 0 8.284-6.716 15-15 15z"
       fill="#32b464"
       id="path6" />
    <path
       d="m336.333 48.204h-16.066l186.781 186.781c3.034-2.745 4.952-6.701 4.952-11.115 0-96.863-78.804-175.666-175.667-175.666z"
       fill="#28825a"
       id="path8" />
    <path
       d="m256 158.537c-8.284 0-15-6.716-15-15v-48.2c0-8.284 6.716-15 15-15s15 6.716 15 15v48.2c0 8.284-6.716 15-15 15z"
       fill="#1e000a"
       id="path10" />
    <path
       d="m81.917 182.378c-3.705-7.41-.701-16.419 6.708-20.125l321.334-160.666c7.41-3.705 16.42-.702 20.124 6.708 3.705 7.41.702 16.419-6.708 20.125l-321.333 160.667c-7.385 3.693-16.408.725-20.125-6.709z"
       fill="#823200"
       id="path12" />
    <path
       d="m335.362 201.722s-68.44-68.48-68.761-68.8c-2.929-2.925-6.765-4.388-10.602-4.388s-7.673 1.463-10.602 4.388c-.32.32-68.761 68.8-68.761 68.8-31.693 31.632-49.148 73.732-49.148 118.545s17.455 86.913 49.148 118.545c0 0 68.44 68.48 68.761 68.8 2.93 2.925 6.766 4.388 10.603 4.388s7.673-1.463 10.602-4.388c.32-.32 68.761-68.8 68.761-68.8 31.693-31.632 49.148-73.732 49.148-118.545s-17.455-86.913-49.149-118.545z"
       fill="#823200"
       id="path14" />
    <path
       d="m335.362 201.722s-68.44-68.48-68.761-68.8c-2.929-2.925-6.765-4.388-10.602-4.388v383.466c3.837 0 7.673-1.463 10.602-4.388.32-.32 68.761-68.8 68.761-68.8 31.693-31.632 49.148-73.732 49.148-118.545s-17.454-86.913-49.148-118.545z"
       fill="#4b1e0a"
       id="path16" />
    <path
       d="m269.139 136.288c-2.555-4.625-7.481-7.755-13.139-7.755s-10.584 3.13-13.139 7.755c-66.934 113.562-66.907 254.521.066 368.066 2.573 4.561 7.463 7.646 13.073 7.646s10.5-3.085 13.073-7.646c66.973-113.545 66.999-254.504.066-368.066z"
       fill="#af6432"
       id="path18" />
    <path
       d="m256 512v-383.467c5.658 0 10.584 3.13 13.139 7.755 66.934 113.562 66.907 254.521-.066 368.066-2.574 4.561-7.464 7.646-13.073 7.646z"
       fill="#823200"
       id="path20" />
    <path
       d="m409.959 1.587-153.959 76.98v33.541l167.375-83.688c7.41-3.705 10.413-12.715 6.708-20.125-3.704-7.41-12.714-10.413-20.124-6.708z"
       fill="#4b1e0a"
       id="path22" />
  </g>
</svg>
